<?xml version="1.0" encoding="utf-8"?>
<!-- Generator: Adobe Illustrator 16.0.0, SVG Export Plug-In . SVG Version: 6.00 Build 0)  -->
<!DOCTYPE svg PUBLIC "-//W3C//DTD SVG 1.0//EN" "http://www.w3.org/TR/2001/REC-SVG-20010904/DTD/svg10.dtd">
<svg version="1.0" id="Layer_1" xmlns="http://www.w3.org/2000/svg" xmlns:xlink="http://www.w3.org/1999/xlink" x="0px" y="0px"
	 width="800px" height="800px" viewBox="0 0 800 800" enable-background="new 0 0 800 800" xml:space="preserve">
<g>
	<path fill="#070606" d="M397.815,780.664c-4.99-1.752-34.716-13.492-38.498-15.146c-56.446-24.426-110.59-49.512-152.685-87.943
		c-46.431-42.457-71.918-96.674-77.938-165.807c-0.545-6.234-0.948-12.984-1.243-20.631c-2.445-4.705-3.921-9.059-4.819-12.375
		c0.085,1.482,0.254,3.074,0.429,4.363c0.044,0.535,0.116,1.072,0.165,1.582l1.001,9.057l-5.652-7.135
		c-9.204-11.67-12.823-25.332-9.581-34.436c-2.146-0.51-4.336-1.467-6.455-2.389c-2.093-0.873-4.47-1.902-5.737-1.902
		c-0.135,0-0.232,0-0.254,0.025c0,0-0.05,0.125-0.122,0.322l-0.097,0.385l-0.233,0.34c0,0.098,0.212,0.662,0.306,1
		c0.317,0.877,0.741,2.123,0.218,3.408l-0.863,2.191l-2.274-0.627c-13.713-3.781-26.853-14.836-23.272-30.107
		c0.998-4.283,3.675-6.938,6.042-9.354c0.169-0.141,0.347-0.311,0.522-0.484c-0.05-0.125-0.125-0.266-0.175-0.42
		c-0.396-0.99-0.925-2.262-0.848-4.156c0.048-1.316,0.523-2.369,0.927-3.219c0.119-0.295,0.324-0.725,0.374-0.947
		c-0.157-0.367-0.497-0.975-0.73-1.389c-0.34-0.586-0.669-1.193-0.946-1.779c-2.621-5.893-2.959-12.882-1.052-19.944
		c-0.719-0.297-1.484-0.781-2.069-1.634l-0.196-0.34l-0.094-0.344c-1.874-6.112-4.667-15.345-0.234-23.794
		c0.55-1.018,1.306-1.921,2.042-2.771c0.734-0.833,1.624-1.905,1.78-2.558c0.171-0.904,0.075-2.339-0.05-3.852
		c-0.204-2.848-0.425-6.114,0.89-8.962l0.431-0.899l0.897-0.416c3.335-1.462,6.637-3.096,9.827-4.653
		c7.709-3.798,15.664-7.696,25.088-9.959c-0.1-0.365-0.222-0.732-0.353-1.149c-0.318-1.044-0.693-2.24-0.815-3.724l-0.125-1.505
		l1.243-0.881c4.494-3.096,9.426-5.894,14.732-8.354V27.758l16.113,23.455c17.183,25.016,43.375,38.187,77.839,39.111
		c1.353,0.05,2.715,0.077,4.093,0.077c15.394,0,31.954-2.436,49.257-7.235c0.55-0.169,1.214-0.266,1.998-0.266
		c3.857,0,11.24,1.899,22.417,4.776c22.324,5.721,59.684,15.338,96.386,15.338c1.659,0,3.298-0.021,4.919-0.071h0.169
		c1.708,0.05,3.364,0.071,4.998,0.071c36.702-0.021,74.062-9.617,96.423-15.338c11.156-2.876,18.507-4.776,22.379-4.776
		c0.783,0,1.441,0.097,2,0.266c17.313,4.8,33.877,7.235,49.272,7.235c1.359,0,2.698-0.027,4.04-0.077
		c34.486-0.924,60.67-14.095,77.887-39.111l16.097-23.455v280.061c4.95,2.333,9.571,4.99,13.786,7.888l1.242,0.881l-0.122,1.505
		c-0.094,1.484-0.486,2.705-0.806,3.774c-0.142,0.415-0.264,0.755-0.36,1.12c9.423,2.242,17.362,6.115,25.034,9.914
		c3.241,1.581,6.549,3.215,9.915,4.677l0.874,0.416l0.439,0.921c1.289,2.826,1.069,6.067,0.877,8.892
		c-0.1,1.561-0.193,2.969-0.026,3.9c0.122,0.652,1.049,1.724,1.777,2.558c0.711,0.872,1.487,1.753,1.996,2.771
		c4.141,7.82,2.194,16.05-0.194,23.794l-0.122,0.344l-0.192,0.313c-0.558,0.88-1.342,1.364-2.067,1.682
		c1.922,7.019,1.555,14.03-1.023,19.899c-0.297,0.609-0.635,1.217-0.952,1.803c-0.22,0.414-0.611,1.021-0.76,1.389
		c0.057,0.195,0.248,0.633,0.396,0.947c0.39,0.85,0.875,1.902,0.925,3.166c0.051,1.922-0.464,3.191-0.852,4.166
		c-0.073,0.17-0.119,0.314-0.173,0.463c0.173,0.174,0.341,0.344,0.511,0.512c2.367,2.389,5.037,5.043,6.044,9.326
		c3.576,15.291-9.571,26.326-23.261,30.107l-2.288,0.627l-0.877-2.164c-0.486-1.313-0.051-2.559,0.241-3.436
		c0.123-0.338,0.294-0.875,0.294-1.072l-0.216-0.338l-0.125-0.295c-0.051-0.217-0.098-0.314-0.146-0.367c-0.049,0-0.1,0-0.196,0
		c-1.288,0-3.651,1.029-5.725,1.902c-2.138,0.922-4.36,1.879-6.502,2.389c3.289,9.104-0.345,22.766-9.549,34.436l-5.673,7.162
		l1-9.084c0.047-0.484,0.115-1.021,0.194-1.582c0.147-1.27,0.338-2.881,0.389-4.338c-0.733,2.855-1.947,6.402-3.803,10.328
		c-0.288,8.449-0.727,15.881-1.31,22.652c-5.991,69.133-31.495,123.35-77.94,165.807c-42.06,38.406-96.196,63.518-152.657,87.943
		c-3.771,1.654-33.41,13.35-38.48,15.146l-2.632,0.734L397.815,780.664z"/>
	<path fill="#FE0907" d="M720.293,415.736c0.341-2.1,1.41-2.922,1.316-5.238c-0.054-1.582-1.438-3.096-1.316-4.551
		c0.097-0.859,1.362-2.709,1.923-3.926c2.459-5.556,2.926-12.666,0.218-20.435c0.925-0.586,2.485-0.608,3.118-1.508
		c1.995-6.674,4.194-14.643,0.392-21.827c-1.024-1.894-3.651-3.87-4.043-6.035c-0.634-3.166,1.018-8.5-0.684-12.202
		c-12.03-5.312-22.602-12.155-36.774-14.978c0-2.851,1.268-4.506,1.458-7.161c-4.626-3.193-9.59-5.966-14.902-8.407V36.185
		l-11.352,16.512c-17.677,25.721-44.592,39.285-79.934,40.261c-16.849,0.488-35.234-2.049-54.09-7.282
		c-7.718-2.143-66.949,21.237-125.103,19.873h-0.05h-0.047c-58.16,1.364-117.413-22.016-125.125-19.873
		c-18.851,5.233-37.258,7.77-54.09,7.282c-35.338-0.977-62.25-14.541-79.934-40.261l-11.349-16.512v272.874
		c-5.661,2.508-10.947,5.431-15.834,8.816c0.198,2.655,1.476,4.311,1.44,7.161c-14.136,2.823-24.755,9.667-36.75,14.978
		c-1.73,3.702-0.05,9.036-0.68,12.202c-0.415,2.165-3.036,4.142-4.033,6.035c-3.8,7.185-1.645,15.153,0.389,21.827
		c0.608,0.9,2.155,0.921,3.094,1.508c-2.691,7.769-2.267,14.879,0.231,20.435c0.546,1.217,1.839,3.066,1.924,3.926
		c0.121,1.455-1.256,2.969-1.35,4.551c-0.077,2.316,0.975,3.139,1.35,5.238c-2.798,2.969-5.919,5.33-6.939,9.74
		c-3.495,14.834,10.923,24.035,21.417,26.959c0.401-1.047-1.486-3.094-0.269-4.918c1.949-6.652,12.996,3.773,19.257,2.234
		c-5.287,7.316-2.854,22.213,7.449,35.25c-0.596-5.457-2.023-12.717,3.351-13.037c0.194,2.1,1.358,9.621,6.078,18.492
		c0.276,7.139,0.677,14.172,1.249,21.084c5.957,68.467,31.177,122.123,77.113,164.102c41.731,38.094,95.666,63.113,151.936,87.488
		c4.069,1.752,36.533,14.568,38.772,15.201l1.303,0.385v0.025l0.047-0.025l0.05,0.025v-0.025l1.306-0.385
		c2.242-0.633,34.685-13.449,38.75-15.201c56.234-24.375,110.21-49.395,151.927-87.488c45.96-41.979,71.185-95.635,77.128-164.102
		c0.637-7.549,1.028-15.244,1.319-23.059c3.844-7.988,4.871-14.586,5.063-16.518c5.386,0.32,3.947,7.58,3.336,13.037
		c10.331-13.037,12.762-27.918,7.453-35.25c6.286,1.539,17.316-8.887,19.268-2.234c1.212,1.85-0.685,3.898-0.245,4.918
		c10.476-2.896,24.89-12.125,21.403-26.959C726.186,421.066,723.066,418.705,720.293,415.736"/>
	<path fill="#FE0907" d="M270.795,86.941c-2.521,0.464,39.504-31.736,24.197-34.435c-21.443-4.506-31.1-20.969-36.031-30.25
		c-3.597,28.443-14.968,32.002-43.451,27.034C226.737,66.508,246.825,79.661,270.795,86.941"/>
	<path fill="#070606" d="M249.118,48c5.372-3.994,8.585-11.157,10.4-22.508c6.465,11.473,16.392,24.138,35.219,28.108
		c2.118,0.367,2.349,1.217,2.424,1.464c0.05,0.239,0.097,0.459,0.097,0.678c0,5.552-15.563,19.535-22.371,25.646
		c-2.522,2.24-3.837,3.432-4.591,4.217c-22.992-7.14-41.406-19.462-52.302-34.829C231.507,52.943,242.065,53.211,249.118,48
		 M257.848,22.111c-1.592,12.685-4.707,20.114-10.069,24.086c-6.853,5.088-17.777,4.458-32.076,1.999l-2.521-0.465l1.401,2.143
		c11.096,17.05,30.956,30.589,55.895,38.141l0.793,0.218l0.425-0.853c0.268-0.438,2.52-2.433,4.666-4.359
		c11.971-10.738,24.635-22.672,22.942-28.544c-0.475-1.63-1.853-2.655-4.142-3.065c-19.399-4.096-29.029-18.026-35.219-29.692
		l-1.667-3.116L257.848,22.111z"/>
	<path fill="#FE0907" d="M529.522,86.941c2.508,0.464-39.529-31.736-24.188-34.435c21.437-4.506,31.075-20.969,36.047-30.25
		c3.555,28.443,14.953,32.002,43.426,27.034C573.575,66.508,553.484,79.661,529.522,86.941"/>
	<path fill="#070606" d="M525.457,81.367c-6.825-6.118-22.386-20.044-22.386-25.597c0-0.269,0.025-0.488,0.075-0.684
		c0.069-0.269,0.338-1.119,2.389-1.462c18.896-3.994,28.78-16.659,35.26-28.132c1.803,11.373,5.02,18.487,10.427,22.479
		c7.015,5.213,17.633,4.972,31.1,2.804c-10.937,15.388-29.322,27.714-52.313,34.829C529.278,84.82,527.965,83.628,525.457,81.367
		 M540.385,21.718c-6.21,11.666-15.809,25.623-35.291,29.714c-2.214,0.389-3.605,1.414-4.095,3.022
		c-1.654,5.893,10.962,17.849,22.947,28.565c2.141,1.948,4.385,3.921,4.671,4.359l0.466,0.683l0.757-0.048
		c24.962-7.574,44.811-21.116,55.864-38.141l1.417-2.143l-2.53,0.438c-14.275,2.508-25.188,3.094-32.053-1.972
		c-5.357-3.972-8.474-11.401-10.085-24.112l-0.436-3.483L540.385,21.718z"/>
	<g>
		<defs>
			<path id="SVGID_1_" d="M400.52,97.947h-0.072h-0.049c-24.198,0.637-48.612-1.972-69.412-10.612
				c-37.251,18.602-76.485,28.345-110.374,27.372c-26.683-0.729-49.954-7.942-68.917-21.091v313.914l-0.192,27.926
				c-0.048,8.895-0.146,17.563-0.146,26.064c0,16.799,0.315,32.908,1.646,48.15c5.528,63.617,27.799,111.25,70.077,149.9
				c39.25,35.854,91.432,59.988,145.892,83.568c3.563,1.529,22.002,8.814,31.426,12.443v0.049c0.023,0,0.049-0.029,0.049-0.029
				c0.021,0,0.049,0.029,0.072,0.029v-0.049c9.392-3.629,27.859-10.914,31.414-12.443c54.504-23.58,106.67-47.715,145.883-83.568
				c42.301-38.65,64.59-86.283,70.096-149.9c1.333-15.242,1.652-31.352,1.652-48.15c0-8.502-0.071-17.17-0.14-26.064l-0.204-27.926
				V93.615c-18.944,13.149-42.229,20.362-68.918,21.091c-33.877,0.973-73.065-8.77-110.328-27.372
				C449.122,95.976,424.699,98.584,400.52,97.947"/>
		</defs>
		<clipPath id="SVGID_2_">
			<use xlink:href="#SVGID_1_"  overflow="visible"/>
		</clipPath>
		
			<linearGradient id="SVGID_3_" gradientUnits="userSpaceOnUse" x1="98.0679" y1="836.4951" x2="123.0059" y2="836.4951" gradientTransform="matrix(19.978 0 0 -19.978 -1807.8501 17132.9902)">
			<stop  offset="0" style="stop-color:#A39E99"/>
			<stop  offset="0.35" style="stop-color:#F5F5F3"/>
			<stop  offset="0.4762" style="stop-color:#FCFCFC"/>
			<stop  offset="0.5091" style="stop-color:#FFFFFF"/>
			<stop  offset="0.65" style="stop-color:#F6F7F6"/>
			<stop  offset="1" style="stop-color:#A39E99"/>
		</linearGradient>
		<rect x="151.359" y="87.335" clip-path="url(#SVGID_2_)" fill="url(#SVGID_3_)" width="498.206" height="668.296"/>
	</g>
	<path fill="#FE0907" d="M442.354,109.59c-81.545,7.042-156.679-1.803-204.416-28.788c12.717-7.765,23.759-16.802,38.411-25.376
		c68.584,35.096,187.243,27.791,257.24-3.479c11.448,11.325,18.755,15.538,28.789,26.884
		C542.256,88.6,489.266,105.549,442.354,109.59"/>
	<path fill="#070606" d="M533.293,53.233c4.706,4.606,8.678,8.04,12.521,11.303c4.824,4.14,9.473,8.161,14.686,13.906
		c-22.134,10.376-74.26,26.253-118.243,30.031c-84.649,7.308-156.229-2.583-202.087-27.815c5.113-3.164,9.947-6.478,15.012-10.009
		c6.591-4.628,13.445-9.354,21.251-13.955C346.14,91.982,465.103,83.436,533.293,53.233 M533.103,50.917
		c-67.802,30.327-186.944,38.97-256.245,3.538l-0.547-0.271l-0.5,0.293c-8.132,4.748-15.112,9.622-21.894,14.321
		c-5.589,3.922-10.875,7.575-16.562,11.058l-1.617,1l1.668,0.922c46.139,26.089,118.958,36.339,205.044,28.913
		c47.204-4.096,99.758-20.826,120.413-30.86l1.316-0.633l-0.979-1.095c-5.768-6.551-10.714-10.767-15.949-15.274
		c-3.972-3.357-8.013-6.868-12.884-11.688l-0.562-0.536L533.103,50.917z"/>
	<path fill="#070606" d="M487.853,91.426l-3.559,1.019l1.17,4.116l3.555-0.996L487.853,91.426z M470.705,76.492l2.047,9.063
		l-6.63,1.484l-2.088-9.007l-3.583,0.777l5.138,22.6l3.604-0.826l-2.385-10.499l6.623-1.512l2.411,10.5l3.602-0.828l-5.135-22.58
		L470.705,76.492z M445.278,100.484l0.587,4.211l3.652-0.511l-0.611-4.261L445.278,100.484z M432.42,93.884l-2.633,0.242
		l-0.828-7.963l2.389-0.242c2.922-0.294,4.091,1.096,4.332,3.604C435.975,92.394,434.392,93.688,432.42,93.884 M432.323,82.996
		l-7.308,0.752l2.36,23.043l3.678-0.367l-0.973-9.524l3.21-0.34c4.339-0.416,6.48-3.361,6.041-7.474
		C438.946,85.139,436.73,82.56,432.323,82.996 M407.433,107.888l3.696-0.123l-0.141-4.287l-3.706,0.121L407.433,107.888z
		 M397.573,94.175l-6.81-0.022l0.054-9.282l-3.714-0.022l-0.101,23.159h3.691l0.047-10.76l6.833,0.043l-0.071,10.767h3.714
		l0.122-23.164l-3.715-0.022L397.573,94.175z M366.97,107.011l3.692,0.292l0.306-4.289l-3.691-0.263L366.97,107.011z
		 M357.926,99.316c-0.233,2.338-0.453,4.578-2.926,4.355c-2.046-0.242-2.289-1.824-2.096-3.697l0.097-1.125l-3.49-0.367
		l-0.125,1.491c-0.242,3.039,0.576,5.962,5.29,6.473c3.688,0.394,6.394-1.146,6.867-6.206l1.62-16.708l-3.69-0.34L357.926,99.316z
		 M330.442,102.963l3.661,0.538l0.623-4.233l-3.668-0.564L330.442,102.963z M330.232,79.537l-3.982-0.729l-8.705,8.696l-0.05-0.028
		l1.792-9.939l-3.644-0.655l-4.141,22.795l3.641,0.658l1.328-7.377l2.548-2.485l3.662,11.225l4.118,0.756l-4.896-14.513
		L330.232,79.537z"/>
	<g>
		<defs>
			<polygon id="SVGID_4_" points="154.27,289.914 152.883,305.745 146.123,307.863 134.091,313.225 119.479,318.926 119,327.375 
				113.878,328.104 99.226,334.292 83.494,341.938 81.973,351.292 75.589,365.853 75.589,365.952 81.021,377.593 81.402,389.576 
				83.346,400.61 82.117,413.467 81.874,427.379 87.355,439.139 106.461,443.592 118.857,450.852 127.259,473.191 148.792,504.701 
				160.434,487.971 167.467,458.648 181.438,458.938 186.343,468.996 192.749,488.623 201.737,500.604 214.072,505.721 
				203.431,490.555 196,453.975 182.202,435.025 188.462,396.343 214.624,385.14 257.026,368.925 245.792,360.181 212.137,357.691 
				214.624,337.749 230.843,322.797 237.102,306.573 183.469,302.875 177.237,289.136 172.806,286.894 165.522,289.502 
				161.735,284.339 			"/>
		</defs>
		<clipPath id="SVGID_5_">
			<use xlink:href="#SVGID_4_"  overflow="visible"/>
		</clipPath>
		
			<linearGradient id="SVGID_6_" gradientUnits="userSpaceOnUse" x1="77.6553" y1="868.1982" x2="102.5908" y2="868.1982" gradientTransform="matrix(7.2762 0 0 -7.2762 -489.4475 6712.2134)">
			<stop  offset="0" style="stop-color:#A39E99"/>
			<stop  offset="0.1089" style="stop-color:#B8B4B0"/>
			<stop  offset="0.3357" style="stop-color:#ECEBEA"/>
			<stop  offset="0.4121" style="stop-color:#FFFFFF"/>
			<stop  offset="0.7677" style="stop-color:#C5C2BF"/>
			<stop  offset="1" style="stop-color:#A39E99"/>
		</linearGradient>
		<rect x="75.589" y="284.339" clip-path="url(#SVGID_5_)" fill="url(#SVGID_6_)" width="181.437" height="221.381"/>
	</g>
	<path fill="#FE0907" d="M201.723,340.961c-1.122,4.459-0.594,8.577-1.725,12.448c-3.313,11.107-12.363,13.858-20.804,19.848
		c6.662,1.482,13.082-1.436,19.083-3.364c8.999-2.826,17.802-6.133,29.86-5.5c7.646,0.364,13.542,2.581,19.141,5.331
		c-15.207-0.12-26.656,2.559-37.982,7.82c-12.139,5.698-25.654,12.251-42.743,7.865c-1.374,7.405,9.157,12.399,12.144,17.562
		c1.779,3.092,2.325,15.584,0,26.35c-1.716,7.842-21.787,4.391-32.819,3.021c-1.544,1.289-1.217,4.025-2.241,5.893
		c-0.191,2.998,0.43,6.84,2.949,11.57c9.642,18.072,16.257,28.33,11.688,33.051c0,0,0,0-0.026,0
		c0.647-1.201,2.399-7.814-17.326-24.207c-2.548,8.271-3.276,21.596,6.953,38.959c-15.063-17.166-18.227-33.191-10.498-42.643
		c-2.919-3.336-5.687-7.52-6.232-11.813c-12.299,1.709-32.893-6.447-42.741-11.443c13.989,0.633,28.505,1.877,36.434-4.355
		c-3.301,1.135-6.287,2.627-11.022,2.139c14.039-5.529,23.136-20.721,20.947-41.916c5.757,9.743,2.494,28.132-4.337,35.173
		c6.831-2.926,10.497-11.164,11.57-21.461c0.9-8.769-0.302-20.92-4.264-24.747c-1.301-1.265-3.667-1.803-5.737-1.945
		c-6.537-0.294-13.1,2.826-19.677,4.458c-6.734,1.628-13.65,3.115-20.254,0.29c-0.446-7.086,4.811-19.408,12.292-20.043
		c4.64-0.416,6.392,2.628,7.631,6.133c4.569-1.845,6.639-6.523,8.611-11.274c-9.179-3.943-24.148-2.581-29.53-9.957
		c10.123-8.04,23.467-12.353,38.857-14.348c-0.497-2.189-3.443-4.382-4.687-6.773c2.663-3.138,7.123-4.503,11.24-5.942
		c4.211-1.458,8.95-2.459,13.494-3.357c-1.449,3.138-3.695,5.38-5.481,8.131c9.021-0.778,20.092-4.726,31.319-3.26
		c8.208,1.069,13.845,5.381,19.179,9.156c6.979-7.747,17.832-12.567,33.036-9.987C215.74,320.164,205.086,327.788,201.723,340.961
		 M209.749,502.215c0,0-18.851-8.307-19.131-29.42c-0.938-27.199-18.093-31.877-15.183-31.172
		c8.111,1.994,15.938,9.426,20.954,22.721C201.396,479.834,195.345,491.094,209.749,502.215 M196.509,436.342
		c13.042,14.824,38.727,17.408,38.727,17.408C194.368,458.328,196.509,436.342,196.509,436.342 M242.444,516.146
		c-37.458,25.332-55.708-6.285-62.942-52.436C179.502,463.711,199.398,527.008,242.444,516.146 M86.283,412.01
		c1.484,1.529,1.959,4.016,2.835,6.131c1.354-0.338,2.096-1.285,2.79-2.313c2.131,0.561,2.495,2.727,4.372,3.484
		c0.743-2.852,2.239-4.914,3.313-7.457c1.619,2.244,2.825,4.846,4.686,6.797c0.784-0.975,1.23-2.264,2.048-3.139
		c2.897,1.975,4.917,4.75,7.615,6.893c-7.163,2.926-20.806,1.289-28.681-1.467C84.482,418.072,85.231,414.398,86.283,412.01
		 M85.5,382.561c8.307,9.959,24.541,1.659,35.174-0.361c-1.595,3.943-4.244,6.719-6.167,10.299c-1.618-0.147-1.64-1.755-2.82-2.31
		c-1.694,0.92-2.343,3.065-3.939,4.112c-1.301-0.656-1.712-2.167-2.763-3.114c-1.591,3.82-2.749,8.202-3.873,12.61
		c-2.288-3.334-4.188-6.988-4.116-12.469c-1.859,0.73-2.995,2.338-4.213,3.85c-1.399-1.22-1.765-3.335-2.359-5.312
		c-1.879,1.83-2.495,5.043-3.375,8.017C84.007,395.057,83.664,387.577,85.5,382.561 M89.167,359.035
		c-1.337,4.726-2.544,9.622-4.211,13.953C81.361,369.143,81.361,350.339,89.167,359.035 M194.841,296.491
		c7.199-10.84,31.116-20.361,53.099-17.563c-28.06-9.814-46.217-4.502-56.324,2.973c40.71-47.368,72.411-12.809,73.88-7.716
		c-6.268-17.78-38.517-31.006-67.218-14.835c-17.826,10.643-24.467,25.865-31.865,21.796c-2.474-1.287-0.077-7.793,0.765-9.568
		c-11.398,4.064-19.069,16.462-20.072,31.44c-12.391,3.362-23.498,8.259-33.023,14.857c0.234,2.628,1.477,4.311,1.45,7.161
		c-14.136,2.823-24.77,9.688-36.765,14.951c-1.716,3.729-0.048,9.063-0.666,12.229c-0.428,2.165-3.023,4.142-4.046,6.063
		c-3.788,7.157-1.618,15.102,0.402,21.8c0.599,0.9,2.169,0.948,3.116,1.508c-2.713,7.792-2.274,14.857,0.197,20.458
		c0.55,1.193,1.852,3.07,1.924,3.902c0.119,1.455-1.243,2.939-1.325,4.551c-0.075,2.316,0.971,3.139,1.325,5.238
		c-2.786,2.969-5.906,5.33-6.927,9.711c-3.495,14.881,10.923,24.092,21.417,26.988c0.428-1.047-1.473-3.094-0.277-4.918
		c1.945-6.652,12.992,3.746,19.272,2.234c-5.284,7.332-2.861,22.193,7.467,35.25c-0.62-5.482-2.047-12.717,3.314-13.057
		c0.425,4.383,5.092,32.627,37.641,47.025c-4.874-4.238-7.394-12.73-4.273-16.051c3.088,7.656,9.131,16.373,20.359,21.828
		c-3.348-4.875-7.438-26.572-4.519-27.959c8.829,18.918,34.961,50.072,68.182,28.514c1.05-0.68,5.468-3.889,7.905-7.52
		c1.972-2.926,4.586-7.502,7.905-14.809c-37.533,17.125-47.411-0.76-47.433-30.082c0,0,11.775,28.545,37.358,27.865
		c-8.951-3.9-17.802-11.01-21.349-20.559c9.354,7.672,27.184-3.674,31.324-13.732c-0.246-0.807-16.95,8.057-30.943-1.031
		c30.943,1.031,53.338-26.414,57.305-35.238c-22.039,21.654-63.542,13.932-80.482,0.932c19.434,1.313,44.168-6.387,57.237-19.881
		c-24.113,6.215-50.853-3.578-63.789-16.388c10.646,0.734,17.549-2.849,25.137-6.868c40.249-21.335,41.62-13.663,51.327-9.232
		c0.577-13.517-7.559-20.335-21.151-22.136c5.042-2.069,6.902-5.454,9.07-9.594c-7.198,3.237-16.425,4.19-26.325,4.331
		c0.925-1.681,2.883-2.092,4.409-3.044c1.447-0.876,2.798-2.043,4.444-3.021c2.522-1.508,8.049-3.309,8.097-6.911
		c0.061-3.122-3.456-3.998-7.003-3.66c-5.041,0.516-10.043,2.782-14.163,5.828c-4.163,3.065-6.891,7.108-9.376,10.931
		c-0.45-7.942,1.122-15.05,5.603-19.316c7.537-7.206,37.712-5.157,46.99,0.465c-2.799-4.554-24.436-12.396-30.479-14.807
		c16.489-14.03,46.042-1.801,56.848,3.287C268.505,276.617,214.144,287.31,194.841,296.491 M156.486,340.792
		c4.431-3.629,10.713-5.115,17.375-6.187c0.403-0.05,0.05-0.434-0.214-0.559c-12.18,0.316-22.918,2.218-30.285,7.963
		c0.655,1.484,1.674,2.731,2.967,4.238c0.755,0.898,2.281,3.389,3.519,3.725c1.475,0.367,4.26-0.9,6.429-1.019
		c9.733-0.658,18.706,3.165,26.145,4.331C177.787,346.468,168.723,341.472,156.486,340.792 M220.429,400.195
		c4.142,2.413,7.328,5.286,12.068,6.895c8.5,2.816,14.845,0.967,22.177,0.699c9.719-0.316,18.63,1.977,26.254,5.578
		c-3.618-6.088-9.171-11.689-17.655-13.393C248.386,397.001,235.042,403.092,220.429,400.195 M122.645,351.264
		c4.981-3.434,11.835-4.771,17.425-7.523c-8.974,0.464-16.633,2.409-23.196,5.6C118.698,350.071,120.322,350.996,122.645,351.264
		 M286.614,288.675c-5.532-0.997-23.99-12.519-38.835-1.047c18.935-5.749,35.366,10.909,46.924,10.252
		c9.947-0.586,13.184-5.189,16.468-8.865C305.074,290.57,296.77,292.251,286.614,288.675"/>
	<g>
		<defs>
			<polygon id="SVGID_7_" points="634.778,289.502 627.504,286.894 623.067,289.136 616.835,302.875 563.202,306.573 
				569.438,322.797 585.656,337.749 588.164,357.691 554.51,360.181 543.281,368.925 585.656,385.14 611.842,396.343 
				618.098,435.025 618.951,439.721 604.265,453.975 604.168,457.918 594.767,492.498 588.096,504.701 603.198,495.447 
				611.479,480.668 616.149,455.922 632.835,458.648 648.472,508.26 667.004,482.586 669.102,472.699 682.64,464.078 
				683.223,447.859 695.233,444.297 712.935,439.139 718.442,427.379 718.195,413.467 716.957,400.61 718.903,389.576 
				719.267,377.593 724.721,365.902 718.343,351.292 716.81,341.938 701.076,334.292 686.437,328.104 681.274,327.375 
				680.84,318.926 666.227,313.225 654.146,307.863 647.396,305.745 646.032,289.914 638.557,284.339 			"/>
		</defs>
		<clipPath id="SVGID_8_">
			<use xlink:href="#SVGID_7_"  overflow="visible"/>
		</clipPath>
		
			<linearGradient id="SVGID_9_" gradientUnits="userSpaceOnUse" x1="139.3691" y1="868.0381" x2="164.3047" y2="868.0381" gradientTransform="matrix(7.2764 0 0 -7.2764 -470.8245 6712.4927)">
			<stop  offset="0" style="stop-color:#A39E99"/>
			<stop  offset="0.1073" style="stop-color:#B8B4B0"/>
			<stop  offset="0.3307" style="stop-color:#ECEBEA"/>
			<stop  offset="0.4061" style="stop-color:#FFFFFF"/>
			<stop  offset="0.5162" style="stop-color:#ECEBEA"/>
			<stop  offset="0.8431" style="stop-color:#B8B4B0"/>
			<stop  offset="1" style="stop-color:#A39E99"/>
		</linearGradient>
		<rect x="543.281" y="284.339" clip-path="url(#SVGID_8_)" fill="url(#SVGID_9_)" width="181.439" height="223.92"/>
	</g>
	<polygon fill="#FE0907" points="432.809,485.047 396.004,485.047 380.365,434.943 365.682,485.047 332.936,485.047 
		359.947,396.465 339.965,329.178 372.866,329.178 385.055,374.378 398.599,329.178 429.348,329.178 406.019,401.361 	"/>
	<polygon fill="none" stroke="#080607" stroke-width="0.093" stroke-miterlimit="10" points="432.809,485.047 396.004,485.047 
		380.365,434.943 365.682,485.047 332.936,485.047 359.947,396.465 339.965,329.178 372.866,329.178 385.055,374.378 
		398.599,329.178 429.348,329.178 406.019,401.361 	"/>
	<rect x="436.702" y="329.2" fill="#FE0907" width="34.194" height="155.871"/>
	
		<rect x="436.702" y="329.2" fill="none" stroke="#080607" stroke-width="0.093" stroke-miterlimit="10" width="34.194" height="155.871"/>
	<path fill="#070606" d="M261.249,558.039c0.671,0.482,1.401,1.02,1.401,1.02c1.475,1.1,2.762,2.486,2.762,4.676
		c0,1.537-0.621,3.463-2.267,5.947c-1.774,2.674-3.519,4.186-5.209,4.504c-1.278,0.217-2.668-0.219-4.216-1.41
		c0,0-0.777-0.539-1.521-1.1C253.99,568.977,259.386,560.863,261.249,558.039 M200.351,600.926l21.818,16.047
		c0,0,15.987-24.088,18.326-27.639c1.855,1.385,4.266,3.166,4.266,3.166c8.062,5.922,15.742,8.258,22.89,6.965
		c6.869-1.238,12.922-5.764,18.036-13.492c10.105-15.219,7.991-30.318-5.638-40.381l-28.923-21.309L200.351,600.926z"/>
	<path fill="#070606" d="M278.49,624.086c-8.401,22.629-3.422,35.826,16.659,44.152c9.875,4.123,17.489,4.662,23.92,1.781
		c6.973-3.098,12.513-10.348,16.912-22.158l20.968-56.293l-24.791-10.27l-23.016,61.787c-1.667,4.504-3.145,5.938-4.069,6.385
		c-0.475,0.188-1.193,0.338-2.691-0.27c-1.78-0.729-3.992-1.66-1.069-9.449l22.989-61.719l-24.818-10.275L278.49,624.086z"/>
	<path fill="#070606" d="M348.245,687.904l25.435,3.209c0,0,2.742-24.285,4.593-40.623c2.521,16.801,6.26,41.99,6.26,41.99
		l28.496,3.604l10.62-94.453l-25.453-3.234c0,0-2.643,23.623-4.481,39.969c-2.4-16.809-5.875-41.285-5.875-41.285l-28.917-3.654
		L348.245,687.904z"/>
	<path fill="#070606" d="M435.291,596.4l15.153,66.369c1.844,8.152-0.348,8.713-1.464,8.982c-1.072,0.268-1.583,0.098-1.949-0.125
		c-0.68-0.438-2.047-1.967-3.213-7.16l-1.562-6.713l-24.354,6.158l0.976,4.211c2.479,10.881,6.696,18.1,12.884,21.986
		c5.768,3.604,12.931,4.268,22.019,1.979c20.191-5.115,27.348-17.563,22.43-39.193l-14.448-63.193L435.291,596.4z"/>
	<path fill="#070606" d="M498.616,607.773c5.649,7.867,10.424,14.514,12.126,16.873c-2.041,1.102-3.8,2.076-5.915,3.238
		C503.924,625.018,501.488,617.102,498.616,607.773 M469.392,584.506l21.99,93.428l25.132-13.852c0,0-3.872-11.887-4.847-14.836
		c2.417-1.314,9.357-5.141,11.812-6.502c1.827,2.586,8.841,12.643,8.841,12.643l25.087-13.838l-60.304-72.307L469.392,584.506z"/>
	<path fill="#070606" d="M562.497,583.561c0.9-0.807,2.022-1.174,3.292-1.072c1.997,0.15,4.04,1.436,5.789,3.586
		c1.906,2.332,2.684,4.551,2.684,6.4c0,1.611-0.633,2.969-1.561,3.799c0,0-1.465,1.344-2.822,2.559
		c-2.125-2.631-8.256-10.131-10.275-12.643C560.965,584.973,562.497,583.561,562.497,583.561 M540.996,558.521
		c0.846-0.777,1.774-1.09,2.793-1.018c1.589,0.115,3.313,1.188,4.752,2.953c1.169,1.41,1.95,3.178,1.95,4.861
		c0,1.223-0.417,2.361-1.439,3.289c0,0-1.122,1.002-2.188,1.992c-1.95-2.43-6.261-7.713-8.163-10.031
		C539.849,559.576,540.996,558.521,540.996,558.521 M532.03,538.215l-26.821,24.26l57.846,70.961l26.938-24.346
		c13.495-12.207,14.613-26.646,3.22-40.625c-5.116-6.285-13.18-10.426-21.339-8.09c0.485-1.699,0.828-3.436,0.828-5.232
		c0-5.188-2.069-10.596-6.185-15.658c-4.53-5.58-9.938-8.756-15.612-9.186C544.717,529.836,538.366,532.492,532.03,538.215"/>
	<path fill="#FE0907" d="M248.937,572.281l3.362,2.461c4.542,3.359,8.777,2.389,12.823-3.703c3.957-5.99,3.434-10.613-1.072-13.949
		l-3.398-2.512L248.937,572.281z M251.727,527.744l26.932,19.842c13.69,10.086,13.495,24.313,5.07,37.018
		c-9.854,14.838-23.006,16.689-37.547,5.922l-6.282-4.621l-18.326,27.664l-17.964-13.254L251.727,527.744z"/>
	<path fill="#FE0907" d="M321.231,579.402l-22.135,59.471c-2.995,7.943-1.451,10.98,2.387,12.617
		c3.823,1.555,6.917,0.443,9.872-7.527l22.155-59.5l20.374,8.477l-20.132,54.021c-8.599,23.111-20.594,26.152-37.677,19.043
		c-17.106-7.09-23.939-17.928-15.366-41.037l20.155-54.025L321.231,579.402z"/>
	<polygon fill="#FE0907" points="360.992,596.148 385.762,599.271 393.809,656.313 394.067,656.336 400.3,601.121 421.019,603.732 
		410.887,693.357 386.616,690.289 378.077,633.07 377.857,633.027 371.597,688.387 350.875,685.756 	"/>
	<path fill="#FE0907" d="M459.987,592.67l13.884,60.787c4.871,21.318-2.706,31.711-20.655,36.246
		c-18.341,4.646-27.812-3.678-32.028-22.145l-0.41-1.869l19.727-4.971l0.976,4.311c1.899,8.406,4.749,9.934,8.038,9.111
		c3.31-0.832,5.165-3.531,3.26-11.939l-14.611-64.031L459.987,592.67z"/>
	<path fill="#FE0907" d="M492.379,595.061l-0.194,0.096l11.253,36.262l10.838-5.994L492.379,595.061z M472.112,585.779
		l24.407-13.441l57.138,68.504l-20.63,11.4l-8.79-12.664l-15.445,8.498l4.824,14.83l-20.651,11.379L472.112,585.779z"/>
	<path fill="#FE0907" d="M569.635,602.318l4.652-4.191c2.994-2.756,3.577-8.156-0.881-13.621c-4.21-5.184-9.445-5.523-12.495-2.77
		l-4.621,4.193L569.635,602.318z M546.616,574.092l3.994-3.66c3.389-3.066,2.655-7.938-0.242-11.543
		c-3.065-3.773-7.576-5.26-10.937-2.191l-4.04,3.602L546.616,574.092z M508.501,562.742l25.088-22.703
		c11.886-10.738,22.893-9.084,31.078,1.02c5.817,7.145,8.134,16.232,2.291,24.09l0.145,0.17c9.06-6.717,18.63-2.264,24.307,4.73
		c9.499,11.658,10.812,24.699-3.022,37.234L563.3,629.99L508.501,562.742z"/>
	<path fill="#070606" d="M508.19,154.425c-5.727,4.73-8.702,12.765-8.702,23.898c-0.091,21.237,12.617,27.758,22.799,32.973
		c7.671,3.948,12.007,6.478,11.981,12.227c0,2.146-0.633,3.97-1.702,5.016c-0.78,0.756-1.803,1.123-2.972,1.075
		c-1.367-0.05-4.972-0.147-4.919-8.599c0-0.021,0.025-4.557,0.025-4.557l-2.316-0.119l-24.163-1.17v2.533v3.385
		c-0.047,9.913,2.342,17.146,7.264,22.042c5.088,5.112,12.909,7.573,23.847,7.552c21.764-0.127,32.802-9.815,32.779-28.816
		c0-19.164-12.786-26.227-23.019-31.878c-8.16-4.528-13.2-7.624-13.2-13.663c0.024-1.853,0.583-3.461,1.461-4.191
		c0.655-0.585,1.532-0.754,2.677-0.585c3.145,0.538,4.264,4.825,4.238,8.379l-0.021,4.238l2.141,0.365l23.454,3.533v-2.825
		c0-19.754-9.301-30.787-29.375-34.758C520.996,148.68,513.517,150.021,508.19,154.425 M306.295,147.125l-25.115,3.746l-0.5,1.243
		c0,0-7.252,16.687-11.944,27.525c-0.025-10.253-0.075-26.521-0.075-26.521l-26.958,5.792l0.026,1.972v88.188l27.178-0.142
		c0,0-0.048-24.429-0.048-25.694c0.228-0.438,0.925-1.588,1.83-3.121c2.74,6.649,11.89,28.718,11.89,28.718h1.646l29.178-0.101
		l-1.545-3.404c-8.303-18.588-16.368-35.953-23.943-51.66c1.002-2.047,22.918-47.274,22.918-47.274L306.295,147.125z
		 M313.623,146.83l0.084,2.218l0.367,99.705l27.191-0.091l-0.353-104.752L313.623,146.83z M438.724,148.242
		c-8.257,7.624-11.636,21.237-11.664,47.053c-0.047,22.385,0.63,40.261,9.57,49.127c4.169,4.189,9.865,6.231,17.488,6.209
		c7.352,0,12.885-2.119,16.656-5.968c0.053,0.563,0.222,4.021,0.222,4.021l19.85,0.069l0.22-57.55l-33.733-1.945l0.022,2.607
		l-0.044,20.016c0,0,5.504,0.198,7.843,0.246c-0.248,8.353-1.166,13.614-2.878,15.295c-0.389,0.34-0.922,0.68-2.191,0.655
		c-4.238-0.046-5.112-5.747-5.068-32.149c0.05-16.509,0.269-28.42,3.024-30.951c0.386-0.394,1.022-0.733,2.508-0.613
		c1.095,0.048,2.267,0.489,2.994,2.95c0.733,2.362,1.095,6.063,1.072,10.959v2.262l26.451,2.026l0.05-2.633
		c0.094-30.761-18.27-37.042-29.275-38.017C451.755,141.106,444.254,143.176,438.724,148.242 M391.265,144.101
		c0,0,0.026,37.485,0.026,42.602c-4.264-18.514-10.376-44.842-10.376-44.842l-1.995,0.149l-27.509,1.51l0.045,2.313l0.309,102.829
		l25.73-0.051c0,0-0.077-45.178-0.077-45.279c4.422,18.489,10.824,45.279,10.824,45.279h28.833l0.098-106.869l-25.93-0.122
		L391.265,144.101z"/>
	<path fill="#FE0907" d="M523.453,176.303c0-4.191,2.195-7.896,6.966-7.164c4.292,0.685,6.336,5.481,6.289,10.79v2.143
		c6.911,0.978,13.833,2.052,20.698,3.169c0-18.32-8.135-28.57-27.397-32.348c-18.73-3.577-28.034,6.017-28.104,25.431
		c-0.1,34.067,34.85,27.249,34.803,45.222c0,4.947-2.659,8.647-7.207,8.505c-4.289-0.125-7.313-3.092-7.264-11.056
		c0-0.734,0-1.467,0-2.218c-7.157-0.367-14.369-0.733-21.576-1.052c0,1.124,0,2.246,0,3.364
		c-0.05,20.068,10.231,27.227,28.671,27.18c19.673-0.144,30.363-8.304,30.315-26.402
		C559.695,190.594,523.453,194.446,523.453,176.303 M460.742,161.911c2.656,0.213,4.311,1.869,5.139,4.72
		c0.853,2.705,1.172,6.598,1.172,11.643c7.203,0.459,14.441,0.997,21.599,1.655c0.097-23.429-11.128-34.146-27.034-35.584
		c-26.474-2.165-32.072,17.003-32.119,50.951c-0.05,33.663,1.946,52.947,24.62,52.923c7.553,0,15.493-2.29,18.48-10.69
		c0.1,0,0.2,0,0.275,0c0.122,2.923,0.292,5.846,0.408,8.745c5.068,0.021,10.108,0.021,15.125,0.048
		c0.078-17.584,0.15-35.196,0.197-52.802c-9.574-0.657-19.163-1.22-28.812-1.654c0,5.865-0.05,11.758-0.05,17.655
		c2.654,0.072,5.263,0.149,7.94,0.268c-0.192,17.367-2.969,20.821-7.646,20.773c-6.846-0.121-7.501-7.447-7.454-34.655
		C452.633,168.723,453.388,161.391,460.742,161.911 M393.702,144.079c0,20.968,0.034,41.96,0.034,62.934h-0.232
		c-4.834-20.947-9.652-41.816-14.512-62.571c-8.379,0.296-16.734,0.755-25.088,1.392c0.101,33.465,0.171,66.925,0.271,100.412
		c6.985-0.022,13.917-0.047,20.882-0.047c-0.027-20.922-0.058-41.84-0.112-62.76c0.085,0,0.182,0,0.26,0
		c5.016,20.797,9.997,41.719,14.962,62.76c8.146,0,16.311,0,24.471,0c0.025-34.021,0.047-68.021,0.075-102.046
		C407.724,144.03,400.691,143.982,393.702,144.079 M316.118,149.02c0.125,32.42,0.259,64.86,0.381,97.302
		c7.429-0.027,14.855-0.048,22.318-0.077c-0.123-33.192-0.229-66.389-0.354-99.608C331.037,147.295,323.569,148.098,316.118,149.02
		 M306.621,149.534c-7.928,1.047-15.818,2.24-23.696,3.559c-5.434,12.833-10.899,25.448-16.355,37.672
		c-0.098,0.028-0.157,0.028-0.232,0.028c-0.048-11.546-0.07-23.089-0.098-34.66c-7.376,1.435-14.735,3.021-22.064,4.726v85.753
		c7.426-0.05,14.857-0.072,22.297-0.123c0-7.989-0.023-15.929-0.06-23.914c1.522-2.635,3.089-5.239,4.637-7.942
		c4.375,10.325,8.782,20.921,13.175,31.78c8.452-0.048,16.928-0.071,25.414-0.094c-8.155-18.22-16.318-35.853-24.415-52.655
		C292.35,179.32,299.485,164.561,306.621,149.534"/>
	<path fill="#FE0907" d="M571.974,317.825c15.173-2.58,26.063,2.218,33.027,9.987c5.354-3.775,10.979-8.109,19.188-9.156
		c11.203-1.465,22.31,2.505,31.316,3.26c-1.802-2.751-4.063-4.994-5.501-8.154c4.555,0.897,9.259,1.922,13.492,3.379
		c4.141,1.439,8.599,2.782,11.253,5.942c-1.223,2.391-4.188,4.583-4.674,6.773c15.364,2.022,28.73,6.335,38.868,14.348
		c-5.433,7.404-20.385,5.986-29.563,9.957c1.971,4.772,4.04,9.43,8.619,11.253c1.265-3.457,2.969-6.527,7.649-6.112
		c7.475,0.657,12.709,12.98,12.27,20.066c-6.595,2.78-13.539,1.34-20.26-0.341c-6.577-1.604-13.104-4.699-19.684-4.409
		c-2.041,0.099-4.427,0.684-5.695,1.923c-3.995,3.804-5.163,15.978-4.291,24.747c1.071,10.326,4.732,18.535,11.599,21.461
		c-6.844-7.014-10.111-25.403-4.336-35.195c-2.219,21.216,6.864,36.408,20.947,41.937c-4.779,0.488-7.771-0.979-11.038-2.139
		c7.916,6.232,22.433,5.016,36.435,4.381c-9.861,4.971-30.466,13.152-42.742,11.447c-0.579,4.264-3.314,8.447-6.254,11.783
		c7.762,9.451,4.577,25.477-10.502,42.643c10.233-17.338,9.5-30.662,6.963-38.959c-19.725,16.41-17.996,23.006-17.339,24.232
		c0-0.025,0-0.051-0.046-0.051c-4.53-4.678,2.097-14.953,11.732-33.025c2.539-4.73,3.122-8.572,2.926-11.596
		c-0.998-1.867-0.699-4.551-2.232-5.867c-11.016,1.389-31.128,4.82-32.812-3.021c-2.316-10.766-1.778-23.258,0-26.377
		c2.996-5.136,13.517-10.153,12.156-17.535c-17.101,4.413-30.593-2.192-42.774-7.865c-11.345-5.261-22.739-7.94-37.965-7.82
		c5.624-2.727,11.495-4.967,19.166-5.356c12.034-0.586,20.85,2.7,29.837,5.525c6.012,1.905,12.416,4.825,19.066,3.389
		c-8.423-6.015-17.462-8.766-20.8-19.873c-1.112-3.871-0.583-7.962-1.724-12.448C594.914,327.812,584.246,320.19,571.974,317.825
		 M603.609,464.318c5.017-13.254,12.831-20.727,20.946-22.676c2.926-0.699-14.25,3.924-15.176,31.152
		c-0.29,21.113-19.143,29.445-19.143,29.445C604.653,491.063,598.616,479.834,603.609,464.318 M564.714,453.777
		c0,0,25.72-2.586,38.773-17.436C603.487,436.342,605.629,458.354,564.714,453.777 M620.486,463.736
		c-7.209,46.105-25.476,77.771-62.982,52.385C600.591,527.039,620.486,463.736,620.486,463.736 M714.715,420.939
		c-7.868,2.73-21.504,4.412-28.663,1.496c2.701-2.172,4.724-4.973,7.601-6.949c0.822,0.902,1.285,2.191,2.041,3.141
		c1.9-1.943,3.069-4.527,4.678-6.742c1.093,2.484,2.576,4.576,3.359,7.457c1.851-0.787,2.191-2.979,4.336-3.488
		c0.711,1.002,1.464,1.977,2.777,2.287c0.871-2.09,1.363-4.629,2.85-6.131C714.737,414.398,715.521,418.072,714.715,420.939
		 M712.935,397.883c-0.874-2.952-1.501-6.215-3.382-7.99c-0.562,1.949-0.946,4.091-2.364,5.308
		c-1.216-1.535-2.335-3.117-4.241-3.898c0.104,5.506-1.771,9.186-4.088,12.473c-1.118-4.387-2.241-8.744-3.874-12.589
		c-1.025,0.947-1.433,2.431-2.749,3.136c-1.581-1.069-2.238-3.214-3.947-4.134c-1.169,0.58-1.169,2.141-2.8,2.31
		c-1.92-3.58-4.554-6.384-6.162-10.299c10.62,2.02,26.843,10.321,35.172,0.361C716.349,387.555,715.982,395.057,712.935,397.883
		 M715.007,372.988c-1.634-4.359-2.846-9.227-4.21-13.931C718.637,350.365,718.637,369.167,715.007,372.988 M500.172,321.112
		c10.79-5.061,40.382-17.29,56.849-3.309c-6.044,2.433-27.667,10.274-30.473,14.853c9.26-5.646,39.46-7.716,47.006-0.489
		c4.457,4.266,6.043,11.374,5.576,19.316c-2.482-3.823-5.206-7.891-9.4-10.959c-4.089-3.017-9.104-5.312-14.15-5.771
		c-3.53-0.367-7.038,0.509-6.991,3.603c0.054,3.631,5.603,5.431,8.113,6.939c1.63,1.001,2.994,2.146,4.414,3.048
		c1.555,0.95,3.505,1.336,4.423,3.045c-9.906-0.169-19.141-1.101-26.323-4.385c2.166,4.166,4.041,7.551,9.057,9.62
		c-13.561,1.779-21.724,8.62-21.163,22.163c9.746-4.434,11.104-12.13,51.363,9.205c7.58,4.043,14.492,7.602,25.138,6.845
		c-12.938,12.833-39.698,22.598-63.836,16.385c13.103,13.52,37.85,21.244,57.282,19.906c-16.95,13-58.452,20.699-80.514-0.932
		c3.993,8.824,26.397,36.27,57.328,35.223c-13.978,9.104-30.687,0.24-30.931,1.047c4.141,10.031,21.996,21.432,31.322,13.758
		c-3.511,9.523-12.397,16.633-21.386,20.533c25.646,0.68,37.387-27.865,37.387-27.865c-0.025,29.348-9.916,47.225-47.471,30.1
		c3.366,7.314,5.944,11.865,7.943,14.811c2.433,3.611,6.818,6.795,7.916,7.525c33.192,21.561,59.35-9.594,68.168-28.514
		c2.899,1.385-1.166,23.088-4.502,27.934c11.224-5.455,17.214-14.172,20.333-21.855c3.115,3.363,0.583,11.84-4.241,16.078
		c32.516-14.398,37.213-42.617,37.604-47.006c5.36,0.32,3.947,7.58,3.336,13.037c10.331-13.037,12.739-27.918,7.453-35.266
		c6.261,1.555,17.316-8.871,19.268-2.219c1.212,1.85-0.685,3.898-0.29,4.918c10.521-2.896,24.935-12.125,21.448-26.959
		c-1.043-4.41-4.162-6.771-6.936-9.721c0.341-2.119,1.41-2.941,1.316-5.285c-0.054-1.555-1.438-3.041-1.316-4.523
		c0.097-0.859,1.362-2.688,1.923-3.926c2.459-5.556,2.926-12.666,0.218-20.435c0.925-0.586,2.511-0.608,3.118-1.508
		c1.995-6.674,4.194-14.664,0.392-21.827c-1.024-1.894-3.651-3.845-4.043-6.035c-0.658-3.166,1.018-8.5-0.684-12.202
		c-12.03-5.29-22.602-12.155-36.774-14.978c-0.025-2.826,1.268-4.506,1.458-7.161c-9.545-6.599-20.601-11.495-33.021-14.884
		c-0.978-14.929-8.695-27.349-20.068-31.414c0.83,1.803,3.213,8.303,0.752,9.568c-7.376,4.097-14-11.154-31.853-21.823
		c-28.715-16.167-60.962-2.918-67.194,14.835c1.462-5.065,33.17-39.625,73.843,7.743c-10.085-7.476-28.253-12.809-56.31-2.946
		c21.969-2.825,45.887,6.696,53.094,17.559C585.854,287.335,531.491,276.639,500.172,321.112 M617.563,353.284
		c7.454-1.193,16.416-4.967,26.109-4.359c2.192,0.147,5.016,1.44,6.48,1.023c1.237-0.312,2.727-2.802,3.504-3.675
		c1.316-1.533,2.339-2.798,2.975-4.264c-7.386-5.772-18.122-7.647-30.272-7.942c-0.319,0.077-0.657,0.487-0.219,0.538
		c6.648,1.05,12.927,2.583,17.339,6.165C631.252,341.472,622.218,346.468,617.563,353.284 M536.708,399.953
		c-8.48,1.701-14.057,7.326-17.687,13.395c7.674-3.582,16.561-5.875,26.31-5.533c7.352,0.242,13.636,2.092,22.156-0.752
		c4.756-1.582,7.943-4.432,12.078-6.868C564.958,403.068,551.609,397.001,536.708,399.953 M683.129,349.34
		c-6.577-3.191-14.254-5.136-23.24-5.6c5.602,2.774,12.476,4.09,17.47,7.552C679.668,350.974,681.274,350.049,683.129,349.34
		 M488.776,289.015c3.314,3.654,6.549,8.279,16.511,8.865c11.542,0.679,28.006-16.001,46.909-10.252
		c-14.806-11.498-33.272,0.05-38.827,1.019C503.247,292.251,494.908,290.548,488.776,289.015"/>
</g>
</svg>
